<svg width="33" height="28" viewBox="0 0 33 28" fill="none" xmlns="http://www.w3.org/2000/svg">
<path fill-rule="evenodd" clip-rule="evenodd" d="M31.9745 4.96094C31.9564 5.00532 31.9339 5.04834 31.907 5.09L31.7531 5.37634C31.6767 5.4743 31.5845 5.56791 31.4765 5.65717C31.0665 5.98761 30.554 6.22909 29.939 6.3816C29.078 6.58495 28.2374 6.68662 27.4174 6.68662C26.9664 6.71204 26.5154 6.72475 26.0644 6.72475C25.6134 6.72475 25.1829 6.75017 24.7729 6.801L24.4653 6.801C23.5901 6.81971 22.404 6.82465 20.9068 6.81582C20.9244 6.79975 20.9421 6.78369 20.9597 6.76762L19.5452 6.76762L18.7457 6.76762L17.9462 6.76762C17.6592 6.76762 17.2287 6.75491 16.6546 6.72949L14.3176 6.72949L10.2585 6.72949L7.12188 6.72949C6.05586 6.72949 4.98983 6.70407 3.9238 6.65324C3.7188 6.62782 3.49329 6.6024 3.24728 6.57698C3.00128 6.57698 2.77577 6.55156 2.57076 6.50073L2.20175 6.38634L1.83275 6.31009C1.34073 6.13216 0.930723 5.92881 0.602716 5.70005C0.0287012 5.19168 -0.135303 4.61976 0.110702 3.9843C0.151703 3.80637 0.254205 3.64115 0.41821 3.48864C0.541214 3.36155 0.684717 3.24717 0.848719 3.14549C1.17673 2.94215 1.56624 2.80234 2.01725 2.72609C2.46826 2.57358 2.93978 2.48461 3.43179 2.45919L4.04681 2.38294L4.60032 2.38294L26.9254 2.38294L27.6634 2.38294C27.9094 2.38294 28.1554 2.39565 28.4014 2.42106C28.5245 2.44648 28.6474 2.45919 28.7705 2.45919C28.8525 2.45919 28.9345 2.4719 29.0165 2.49732C29.1805 2.52274 29.3445 2.53545 29.5085 2.53545C29.6315 2.56086 29.7955 2.58628 30.0005 2.6117C30.4515 2.76421 30.8 2.90401 31.046 3.03111C31.538 3.25987 31.8045 3.50135 31.8455 3.75553L31.8455 3.79366C31.8891 3.8612 31.9269 3.92516 31.9589 3.98553C31.985 4.08532 32.0038 4.19104 32.0156 4.30266C32.0053 4.36772 31.9897 4.43953 31.9685 4.51808C31.9685 4.54346 31.989 4.55618 32.0299 4.55621C32.03 4.56729 32.03 4.57842 32.03 4.5896C32.03 4.71848 32.0115 4.84226 31.9745 4.96094Z" fill="#83D128"/>
<path fill-rule="evenodd" clip-rule="evenodd" d="M32.3132 14.4931C32.2951 14.5374 32.2727 14.5804 32.2458 14.622L32.0919 14.9081C32.0155 15.0062 31.9233 15.0998 31.8153 15.1891C31.4053 15.5195 30.8928 15.761 30.2778 15.9135C29.4167 16.1169 28.5762 16.2185 27.7562 16.2185C27.3052 16.244 26.8542 16.2567 26.4032 16.2567C25.9522 16.2567 25.5216 16.2821 25.1116 16.3329L24.8041 16.3329C23.9289 16.3516 22.7428 16.3566 21.2456 16.3477C21.2632 16.3317 21.2809 16.3156 21.2985 16.2996L19.884 16.2996L19.0845 16.2996L18.2849 16.2996C17.9979 16.2996 17.5674 16.2869 16.9934 16.2615L14.6563 16.2615L10.5972 16.2615L7.46066 16.2615C6.39463 16.2615 5.32861 16.236 4.26258 16.1852C4.05757 16.1598 3.83207 16.1344 3.58606 16.109C3.34005 16.109 3.11455 16.0835 2.90954 16.0327L2.54053 15.9183L2.17152 15.8421C1.67951 15.6641 1.2695 15.4608 0.941492 15.232C0.367477 14.7236 0.203472 14.1517 0.449478 13.5163C0.490478 13.3383 0.592981 13.1731 0.756986 13.0206C0.87999 12.8935 1.02349 12.7791 1.1875 12.6775C1.5155 12.4741 1.90502 12.3343 2.35603 12.2581C2.80704 12.1055 3.27855 12.0166 3.77057 11.9912L4.38558 11.9149L4.93909 11.9149L27.2642 11.9149L28.0022 11.9149C28.2482 11.9149 28.4942 11.9276 28.7402 11.953C28.8632 11.9785 28.9862 11.9912 29.1092 11.9912C29.1912 11.9912 29.2732 12.0039 29.3552 12.0293C29.5192 12.0547 29.6832 12.0674 29.8473 12.0674C29.9703 12.0928 30.1343 12.1183 30.3393 12.1437C30.7903 12.2962 31.1388 12.436 31.3848 12.5631C31.8768 12.7918 32.1433 13.0333 32.1843 13.2875L32.1843 13.3256C32.2279 13.3932 32.2657 13.4572 32.2977 13.5176C32.3237 13.6173 32.3426 13.723 32.3544 13.8346C32.3441 13.8997 32.3284 13.9715 32.3073 14.0501C32.3073 14.0754 32.3278 14.0881 32.3686 14.0882C32.3688 14.0992 32.3688 14.1104 32.3688 14.1215C32.3688 14.2505 32.3503 14.3743 32.3132 14.4931Z" fill="#83D128"/>
<path fill-rule="evenodd" clip-rule="evenodd" d="M1.05118 22.1539C1.35893 21.9804 1.71721 21.859 2.12602 21.7899C2.57703 21.6374 3.04854 21.5485 3.54055 21.523L4.15557 21.4468L4.70908 21.4468L27.0342 21.4468L27.7722 21.4468C28.0182 21.4468 28.2642 21.4595 28.5102 21.4849C28.6332 21.5103 28.7562 21.523 28.8792 21.523C28.9612 21.523 29.0432 21.5357 29.1252 21.5612C29.2892 21.5866 29.4532 21.5993 29.6172 21.5993C29.7402 21.6247 29.9043 21.6501 30.1093 21.6755C30.5603 21.8281 30.9088 21.9679 31.1548 22.0949C31.6468 22.3237 31.9133 22.5652 31.9543 22.8194L31.9543 22.8575C32.0363 22.9846 32.0978 23.099 32.1388 23.2006C32.1388 23.3023 32.1183 23.4294 32.0773 23.5819C32.0773 23.6073 32.0978 23.6201 32.1388 23.6201L32.1388 23.7344C32.1388 23.8869 32.0978 24.0267 32.0158 24.1538L31.7698 24.6114C31.6878 24.6876 31.6263 24.7639 31.5853 24.8401C31.5033 24.9418 31.4008 25.0308 31.2778 25.107C31.2406 25.1647 31.1992 25.2223 31.1536 25.28C30.9842 25.3435 30.8052 25.3987 30.6165 25.4454C29.7555 25.6488 28.9149 25.7505 28.0949 25.7505C27.6439 25.7759 27.1929 25.7886 26.7419 25.7886C26.2909 25.7886 25.8604 25.814 25.4503 25.8648L25.1428 25.8648C24.1604 25.8858 22.786 25.8895 21.0198 25.8758C21.036 25.861 21.0523 25.8462 21.0685 25.8315L19.654 25.8315L18.8545 25.8315L18.0549 25.8315C17.7679 25.8315 17.3374 25.8188 16.7634 25.7933L14.4263 25.7933L10.3672 25.7933L7.23065 25.7933C6.16462 25.7933 5.09859 25.7679 4.03257 25.7171C3.82756 25.6917 3.60205 25.6662 3.35605 25.6408C3.23066 25.6408 3.11059 25.6342 2.99585 25.621C2.74426 25.5622 2.50039 25.491 2.26423 25.4073C2.01823 25.3311 1.79273 25.2421 1.58772 25.1404C1.38272 25.0387 1.15721 24.9498 0.911201 24.8735C0.796501 24.8083 0.696285 24.7404 0.610552 24.6697C0.475183 24.5363 0.367203 24.3986 0.286612 24.2567C0.237923 24.1379 0.220612 24.013 0.234681 23.8822C0.234681 23.5009 0.378184 23.1069 0.66519 22.7003C0.776935 22.5155 0.905599 22.3334 1.05118 22.1539Z" fill="#83D128"/>
<path d="M11.3392 2.28024C11.5043 2.8573 11.5769 5.19514 11.5571 5.66023C11.5373 6.13393 11.4449 6.55596 11.2798 6.92631C11.1213 7.29666 10.9067 7.61103 10.636 7.86941C10.3653 8.13641 10.0616 8.35173 9.72483 8.51537C9.47392 8.64456 9.20981 8.74361 8.93249 8.81251C8.65517 8.88141 8.37785 8.92017 8.10053 8.92879C7.82981 8.94601 7.5624 8.93309 7.29829 8.89003C7.03417 8.85558 6.78987 8.79528 6.56537 8.70916C6.4135 8.65748 6.27484 8.59719 6.14939 8.52829C6.02394 8.45939 5.89848 8.37756 5.77303 8.28282C5.4891 8.0675 5.25801 7.78759 5.07973 7.44308C4.90145 7.10718 4.776 6.73683 4.70337 6.33203C4.65054 6.05642 4.62413 5.77219 4.62413 5.47936C4.63074 5.18652 4.66045 3.08123 4.71327 2.79701C4.7727 2.51278 4.85523 2.23718 4.96088 1.97018C5.07313 1.71179 5.21179 1.47494 5.37686 1.25962C5.57494 0.992625 5.80274 0.772998 6.06025 0.600742C6.32437 0.428486 6.59838 0.294987 6.88231 0.200247C7.17283 0.105506 7.46336 0.045217 7.75388 0.0193786C8.04441 -0.0064598 8.32173 -0.00645978 8.58584 0.0193787C8.83014 0.0452171 9.09096 0.105506 9.36828 0.200247C9.6456 0.3036 9.91301 0.450019 10.1705 0.6395C10.428 0.828982 10.6591 1.05722 10.8638 1.32422C11.0751 1.59983 11.2336 1.9185 11.3392 2.28024ZM7.1002 7.1201C7.41053 7.22345 7.76048 7.26651 8.15005 7.24929C8.53962 7.23206 8.90608 7.15024 9.24943 7.00382C9.46072 6.90908 9.6456 6.7885 9.80406 6.64209C9.96914 6.50428 10.0946 6.33633 10.1804 6.13824C10.2663 5.94875 10.3092 5.72482 10.3092 5.46644C10.3092 5.20805 10.2498 3.10276 10.1309 2.78409C10.0583 2.59461 9.95923 2.43096 9.83378 2.29316C9.70832 2.16396 9.56636 2.05631 9.40789 1.97018C9.24943 1.89266 9.08435 1.82807 8.91268 1.77639C8.74101 1.73333 8.57594 1.70749 8.41747 1.69887C8.24579 1.68165 8.06421 1.67734 7.87273 1.68596C7.68785 1.69457 7.49967 1.72041 7.30819 1.76347C7.12331 1.81515 6.94503 1.88405 6.77336 1.97018C6.60829 2.05631 6.45972 2.17258 6.32767 2.319C6.12958 2.54293 5.99092 2.80131 5.91169 3.09415C5.83906 3.3956 5.82915 5.5095 5.88197 5.80234C5.96121 6.27604 6.20221 6.63778 6.60499 6.88755C6.75025 6.9909 6.91532 7.06842 7.1002 7.1201Z" fill="#83D128"/>
<path d="M7.1002 7.1201C7.41053 7.22345 7.76048 7.26651 8.15005 7.24929C8.53962 7.23206 8.90608 7.15024 9.24943 7.00382C9.46072 6.90908 9.6456 6.7885 9.80406 6.64209C9.96914 6.50428 10.0946 6.33633 10.1804 6.13824C10.2663 5.94875 10.3092 5.72482 10.3092 5.46644C10.3092 5.20805 10.2498 3.10276 10.1309 2.78409C10.0583 2.59461 9.95923 2.43096 9.83378 2.29316C9.70832 2.16396 9.56636 2.05631 9.40789 1.97018C9.24943 1.89266 9.08435 1.82807 8.91268 1.77639C8.74101 1.73333 8.57594 1.70749 8.41747 1.69887C8.24579 1.68165 8.06421 1.67734 7.87273 1.68596C7.68785 1.69457 7.49967 1.72041 7.30819 1.76347C7.12331 1.81515 6.94503 1.88405 6.77336 1.97018C6.60829 2.05631 6.45972 2.17258 6.32767 2.319C6.12958 2.54293 5.99092 2.80131 5.91169 3.09415C5.83906 3.3956 5.82915 5.5095 5.88197 5.80234C5.96121 6.27604 6.20221 6.63778 6.60499 6.88755C6.75025 6.9909 6.91532 7.06842 7.1002 7.1201Z" fill="#83D128"/>
<path d="M27.5236 11.8122C27.6887 12.3892 27.7613 14.7271 27.7415 15.1921C27.7217 15.6659 27.6293 16.0879 27.4642 16.4582C27.3057 16.8286 27.0911 17.1429 26.8204 17.4013C26.5497 17.6683 26.246 17.8836 25.9092 18.0473C25.6583 18.1765 25.3942 18.2755 25.1169 18.3444C24.8396 18.4133 24.5622 18.4521 24.2849 18.4607C24.0142 18.4779 23.7468 18.465 23.4827 18.4219C23.2186 18.3875 22.9743 18.3272 22.7498 18.2411C22.5979 18.1894 22.4592 18.1291 22.3338 18.0602C22.2083 17.9913 22.0829 17.9095 21.9574 17.8147C21.6735 17.5994 21.4424 17.3195 21.2641 16.975C21.0858 16.6391 20.9604 16.2687 20.8878 15.8639C20.8349 15.5883 20.8085 15.3041 20.8085 15.0113C20.8151 14.7184 20.8448 12.6132 20.8977 12.3289C20.9571 12.0447 21.0396 11.7691 21.1453 11.5021C21.2575 11.2437 21.3962 11.0069 21.5612 10.7915C21.7593 10.5245 21.9871 10.3049 22.2446 10.1327C22.5088 9.96041 22.7828 9.82691 23.0667 9.73217C23.3572 9.63743 23.6477 9.57714 23.9383 9.5513C24.2288 9.52546 24.5061 9.52546 24.7702 9.5513C25.0145 9.57714 25.2753 9.63743 25.5527 9.73217C25.83 9.83552 26.0974 9.98194 26.3549 10.1714C26.6124 10.3609 26.8435 10.5891 27.0482 10.8561C27.2595 11.1318 27.418 11.4504 27.5236 11.8122ZM23.2846 16.652C23.5949 16.7554 23.9449 16.7984 24.3344 16.7812C24.724 16.764 25.0905 16.6822 25.4338 16.5357C25.6451 16.441 25.83 16.3204 25.9885 16.174C26.1535 16.0362 26.279 15.8683 26.3648 15.6702C26.4507 15.4807 26.4936 15.2567 26.4936 14.9984C26.4936 14.74 26.4341 12.6347 26.3153 12.316C26.2427 12.1265 26.1436 11.9629 26.0182 11.8251C25.8927 11.6959 25.7507 11.5882 25.5923 11.5021C25.4338 11.4246 25.2687 11.36 25.0971 11.3083C24.9254 11.2652 24.7603 11.2394 24.6019 11.2308C24.4302 11.2136 24.2486 11.2093 24.0571 11.2179C23.8722 11.2265 23.6841 11.2523 23.4926 11.2954C23.3077 11.3471 23.1294 11.416 22.9577 11.5021C22.7927 11.5882 22.6441 11.7045 22.5121 11.8509C22.314 12.0749 22.1753 12.3332 22.0961 12.6261C22.0234 12.9275 22.0135 15.0414 22.0664 15.3343C22.1456 15.808 22.3866 16.1697 22.7894 16.4195C22.9346 16.5228 23.0997 16.6003 23.2846 16.652Z" fill="#83D128"/>
<path d="M23.2846 16.652C23.5949 16.7554 23.9449 16.7984 24.3344 16.7812C24.724 16.764 25.0905 16.6822 25.4338 16.5357C25.6451 16.441 25.83 16.3204 25.9885 16.174C26.1535 16.0362 26.279 15.8683 26.3648 15.6702C26.4507 15.4807 26.4936 15.2567 26.4936 14.9984C26.4936 14.74 26.4341 12.6347 26.3153 12.316C26.2427 12.1265 26.1436 11.9629 26.0182 11.8251C25.8927 11.6959 25.7507 11.5882 25.5923 11.5021C25.4338 11.4246 25.2687 11.36 25.0971 11.3083C24.9254 11.2652 24.7603 11.2394 24.6019 11.2308C24.4302 11.2136 24.2486 11.2093 24.0571 11.2179C23.8722 11.2265 23.6841 11.2523 23.4926 11.2954C23.3077 11.3471 23.1294 11.416 22.9577 11.5021C22.7927 11.5882 22.6441 11.7045 22.5121 11.8509C22.314 12.0749 22.1753 12.3332 22.0961 12.6261C22.0234 12.9275 22.0135 15.0414 22.0664 15.3343C22.1456 15.808 22.3866 16.1697 22.7894 16.4195C22.9346 16.5228 23.0997 16.6003 23.2846 16.652Z" fill="#83D128"/>
<path d="M11.8016 21.3441C11.9667 21.9211 12.0393 24.259 12.0195 24.7241C11.9997 25.1978 11.9073 25.6198 11.7422 25.9902C11.5837 26.3605 11.3691 26.6749 11.0984 26.9333C10.8277 27.2003 10.524 27.4156 10.1872 27.5792C9.93632 27.7084 9.67221 27.8075 9.39489 27.8764C9.11757 27.9453 8.84025 27.984 8.56293 27.9926C8.29222 28.0099 8.0248 27.9969 7.76069 27.9539C7.49657 27.9194 7.25227 27.8591 7.02777 27.773C6.87591 27.7213 6.73725 27.661 6.61179 27.5921C6.48634 27.5232 6.36088 27.4414 6.23543 27.3467C5.95151 27.1313 5.72041 26.8514 5.54213 26.5069C5.36385 26.171 5.2384 25.8007 5.16577 25.3959C5.11295 25.1203 5.08654 24.836 5.08654 24.5432C5.09314 24.2504 5.12285 22.1451 5.17567 21.8608C5.2351 21.5766 5.31763 21.301 5.42328 21.034C5.53553 20.7756 5.67419 20.5388 5.83926 20.3235C6.03734 20.0565 6.26514 19.8368 6.52265 19.6646C6.78677 19.4923 7.06079 19.3588 7.34471 19.2641C7.63523 19.1693 7.92576 19.1091 8.21628 19.0832C8.50681 19.0574 8.78413 19.0574 9.04824 19.0832C9.29255 19.1091 9.55336 19.1693 9.83068 19.2641C10.108 19.3674 10.3754 19.5139 10.6329 19.7033C10.8904 19.8928 11.1215 20.1211 11.3262 20.3881C11.5375 20.6637 11.696 20.9823 11.8016 21.3441ZM7.5626 26.1839C7.87294 26.2873 8.22289 26.3304 8.61245 26.3131C9.00202 26.2959 9.36848 26.2141 9.71183 26.0677C9.92312 25.9729 10.108 25.8523 10.2665 25.7059C10.4315 25.5681 10.557 25.4002 10.6428 25.2021C10.7287 25.0126 10.7716 24.7887 10.7716 24.5303C10.7716 24.2719 10.7122 22.1666 10.5933 21.8479C10.5207 21.6584 10.4216 21.4948 10.2962 21.357C10.1707 21.2278 10.0288 21.1201 9.8703 21.034C9.71183 20.9565 9.54676 20.8919 9.37508 20.8402C9.20341 20.7972 9.03834 20.7713 8.87987 20.7627C8.7082 20.7455 8.52662 20.7412 8.33513 20.7498C8.15026 20.7584 7.96207 20.7842 7.77059 20.8273C7.58571 20.879 7.40744 20.9479 7.23576 21.034C7.07069 21.1201 6.92213 21.2364 6.79007 21.3828C6.59198 21.6068 6.45332 21.8652 6.37409 22.158C6.30146 22.4594 6.29155 24.5733 6.34438 24.8662C6.42361 25.3399 6.66462 25.7016 7.06739 25.9514C7.21265 26.0547 7.37772 26.1323 7.5626 26.1839Z" fill="#83D128"/>
<path d="M7.5626 26.1839C7.87294 26.2873 8.22289 26.3304 8.61245 26.3131C9.00202 26.2959 9.36848 26.2141 9.71183 26.0677C9.92312 25.9729 10.108 25.8523 10.2665 25.7059C10.4315 25.5681 10.557 25.4002 10.6428 25.2021C10.7287 25.0126 10.7716 24.7887 10.7716 24.5303C10.7716 24.2719 10.7122 22.1666 10.5933 21.8479C10.5207 21.6584 10.4216 21.4948 10.2962 21.357C10.1707 21.2278 10.0288 21.1201 9.8703 21.034C9.71183 20.9565 9.54676 20.8919 9.37508 20.8402C9.20341 20.7972 9.03834 20.7713 8.87987 20.7627C8.7082 20.7455 8.52662 20.7412 8.33513 20.7498C8.15026 20.7584 7.96207 20.7842 7.77059 20.8273C7.58571 20.879 7.40744 20.9479 7.23576 21.034C7.07069 21.1201 6.92213 21.2364 6.79007 21.3828C6.59198 21.6068 6.45332 21.8652 6.37409 22.158C6.30146 22.4594 6.29155 24.5733 6.34438 24.8662C6.42361 25.3399 6.66462 25.7016 7.06739 25.9514C7.21265 26.0547 7.37772 26.1323 7.5626 26.1839Z" fill="#83D128"/>
</svg>
