<svg width="21" height="19" viewBox="0 0 21 19" fill="none" xmlns="http://www.w3.org/2000/svg">
<path fill-rule="evenodd" clip-rule="evenodd" d="M8.90585 0.80094C9.33949 1.05958 10.1107 1.55595 10.4379 1.83962C10.7735 1.55595 11.4239 1.05958 11.8685 0.80094C12.3215 0.550646 12.8039 0.354583 13.3156 0.212749C13.8274 0.0709157 14.3433 0 14.8634 0C15.4003 0 15.9121 0.108459 16.3987 0.325382C17.1705 0.675793 19.5399 2.84866 19.9677 3.32422C20.4039 3.80812 20.6976 4.33374 20.8486 4.90108C21.008 5.46007 21.0415 6.03574 20.9492 6.62811C20.8654 7.22881 20.6892 7.82118 20.4207 8.4052C20.2278 8.84738 19.9887 9.27706 19.7035 9.69421C19.4182 10.1114 19.1036 10.4993 18.7597 10.8581L18.3558 11.3008C16.3585 13.4905 14.3583 15.6833 12.4035 17.923L12.266 18.0936C12.2355 18.1363 12.1973 18.1754 12.1515 18.2109C12.1056 18.2465 12.0675 18.2891 12.0369 18.3389C11.9605 18.4313 11.8765 18.513 11.7849 18.5841C11.7391 18.6268 11.6856 18.6659 11.6245 18.7014L11.4413 18.8081C11.3496 18.8649 11.2198 18.9111 11.0518 18.9467C10.838 18.9822 10.6923 19 10.4174 19C10.1493 19 9.91094 18.9822 9.70239 18.9467C9.53854 18.9111 9.41192 18.8649 9.32255 18.8081L9.1438 18.7014C9.08421 18.6659 9.03208 18.6268 8.98739 18.5841C8.89802 18.513 8.81609 18.4313 8.74161 18.3389C8.71182 18.2891 8.67458 18.2465 8.62989 18.2109C8.5852 18.1754 8.54796 18.1363 8.51817 18.0936L8.38411 17.923C6.47753 15.6833 4.52684 13.4905 2.57888 11.3009L2.18497 10.8581C1.84951 10.4993 1.54269 10.1114 1.26451 9.69421C0.986326 9.27706 0.753143 8.84738 0.564959 8.4052C0.30314 7.82118 0.131319 7.22881 0.0495004 6.62811C-0.0405013 6.03574 -0.00777116 5.46007 0.147683 4.90108C0.294957 4.33374 0.581323 3.80812 1.00678 3.32422C1.42405 2.84866 3.73492 0.675793 4.48765 0.325382C4.9622 0.108459 5.46129 0 5.98493 0C6.4922 0 6.99538 0.0709157 7.49448 0.212749C7.99357 0.354583 8.46403 0.550646 8.90585 0.80094ZM10.4299 16.4608C10.6588 16.4114 11.0644 16.1215 11.2375 15.9573C11.2971 15.9101 11.3518 15.8558 11.4015 15.7944C11.4371 15.7353 11.4894 15.6812 11.5412 15.6275C11.5761 15.5914 11.6108 15.5555 11.6402 15.5183C12.0087 15.0877 12.377 14.6546 12.7458 14.2209C14.2002 12.5105 15.6636 10.7896 17.1867 9.16859C17.6649 8.65966 18.0508 8.11736 18.3444 7.54168C18.5206 7.18292 18.638 6.83251 18.6968 6.49045C18.7723 6.14838 18.7681 5.82716 18.6842 5.52681C18.6087 5.2348 18.4451 4.96365 18.1934 4.71335C17.9417 4.46306 15.8156 2.49877 15.3542 2.34025C15.0774 2.24848 14.7921 2.2151 14.4985 2.24013C14.2133 2.2735 13.928 2.3486 13.6428 2.4654C13.366 2.59055 13.0933 2.73655 12.8249 2.90341C12.5648 3.07862 12.3299 3.26217 12.1202 3.45406L10.4379 4.99325L8.6604 3.45406C8.45585 3.26217 8.22675 3.07862 7.97312 2.90341C7.7113 2.73655 7.44539 2.59055 7.17539 2.4654C6.89721 2.3486 6.61902 2.2735 6.34084 2.24013C6.05447 2.2151 5.77629 2.24848 5.50629 2.34025C5.05628 2.49877 2.9827 4.46306 2.73724 4.71335C2.49179 4.96365 2.33224 5.2348 2.2586 5.52681C2.17679 5.82716 2.17269 6.14838 2.24633 6.49045C2.3036 6.83251 2.41815 7.18292 2.58997 7.54168C2.87633 8.11736 3.2527 8.65966 3.71906 9.16859C5.20454 10.7896 6.63172 12.5105 8.05023 14.2209C8.40996 14.6546 8.76913 15.0877 9.12855 15.5183C9.1572 15.5555 9.19105 15.5914 9.22506 15.6275C9.27564 15.6812 9.32657 15.7353 9.36128 15.7944C9.40977 15.8558 9.4631 15.9101 9.52129 15.9573C9.69005 16.1215 10.2068 16.4114 10.4299 16.4608Z" fill="#83D128"/>
<path d="M11.2375 15.9573C11.0644 16.1215 10.6588 16.4114 10.4299 16.4608C10.2068 16.4114 9.69005 16.1215 9.52129 15.9573C9.4631 15.9101 9.40977 15.8558 9.36128 15.7944C9.32657 15.7353 9.27564 15.6812 9.22506 15.6275C9.19105 15.5914 9.1572 15.5555 9.12855 15.5183C8.76913 15.0877 8.40996 14.6546 8.05023 14.2209C6.63172 12.5105 5.20454 10.7896 3.71906 9.16859C3.2527 8.65966 2.87633 8.11736 2.58997 7.54168C2.41815 7.18292 2.3036 6.83251 2.24633 6.49045C2.17269 6.14838 2.17679 5.82716 2.2586 5.52681C2.33224 5.2348 2.49179 4.96365 2.73724 4.71335C2.9827 4.46306 5.05628 2.49877 5.50629 2.34025C5.77629 2.24848 6.05447 2.2151 6.34084 2.24013C6.61902 2.2735 6.89721 2.3486 7.17539 2.4654C7.44539 2.59055 7.7113 2.73655 7.97312 2.90341C8.22675 3.07862 8.45585 3.26217 8.6604 3.45406L10.4379 4.99325L12.1202 3.45406C12.3299 3.26217 12.5648 3.07862 12.8249 2.90341C13.0933 2.73655 13.366 2.59055 13.6428 2.4654C13.928 2.3486 14.2133 2.2735 14.4985 2.24013C14.7921 2.2151 15.0774 2.24848 15.3542 2.34025C15.8156 2.49877 17.9417 4.46306 18.1934 4.71335C18.4451 4.96365 18.6087 5.2348 18.6842 5.52681C18.7681 5.82716 18.7723 6.14838 18.6968 6.49045C18.638 6.83251 18.5206 7.18292 18.3444 7.54168C18.0508 8.11736 17.6649 8.65966 17.1867 9.16859C15.6636 10.7896 14.2002 12.5105 12.7458 14.2209C12.377 14.6546 12.0087 15.0877 11.6402 15.5183C11.6108 15.5555 11.5761 15.5914 11.5412 15.6275C11.4894 15.6812 11.4371 15.7353 11.4015 15.7944C11.3518 15.8558 11.2971 15.9101 11.2375 15.9573Z" fill="#83D128"/>
</svg>
