<svg width="41" height="37" viewBox="0 0 41 37" fill="none" xmlns="http://www.w3.org/2000/svg">
<path fill-rule="evenodd" clip-rule="evenodd" d="M17.3876 1.55973C18.2342 2.06339 19.7399 3.03001 20.3788 3.58241C21.034 3.03001 22.3038 2.06339 23.1719 1.55973C24.0563 1.07231 24.9981 0.690503 25.9972 0.4143C26.9963 0.138099 28.0036 0 29.0191 0C30.0673 0 31.0664 0.211211 32.0164 0.633638C33.5233 1.31602 38.1493 5.54739 38.9846 6.47348C39.8363 7.41582 40.4095 8.43939 40.7044 9.5442C41.0156 10.6328 41.0811 11.7538 40.9009 12.9074C40.7371 14.0772 40.3932 15.2307 39.869 16.368C39.4923 17.2291 39.0255 18.0658 38.4686 18.8782C37.9118 19.6906 37.2976 20.4461 36.626 21.1447L35.8376 22.0069C31.9381 26.2709 28.033 30.5411 24.2163 34.9027L23.9479 35.2349C23.8883 35.318 23.8137 35.3941 23.7243 35.4634C23.6348 35.5326 23.5603 35.6156 23.5006 35.7125C23.3515 35.8925 23.1875 36.0517 23.0086 36.1901C22.9192 36.2732 22.8148 36.3493 22.6955 36.4186L22.3377 36.6262C22.1588 36.737 21.9053 36.827 21.5773 36.8962C21.1598 36.9654 20.8755 37 20.3387 37C19.8152 37 19.3499 36.9654 18.9428 36.8962C18.6229 36.827 18.3757 36.737 18.2012 36.6262L17.8522 36.4186C17.7358 36.3493 17.6341 36.2732 17.5468 36.1901C17.3723 36.0517 17.2124 35.8925 17.067 35.7125C17.0088 35.6156 16.9361 35.5326 16.8488 35.4634C16.7616 35.3941 16.6889 35.318 16.6307 35.2349L16.369 34.9027C12.6466 30.5411 8.83812 26.2711 5.03496 22.007L4.26589 21.1447C3.61095 20.4461 3.01192 19.6906 2.4688 18.8782C1.92568 18.0658 1.47042 17.2291 1.10302 16.368C0.591844 15.2307 0.256384 14.0772 0.0966437 12.9074C-0.079074 11.7538 -0.0151723 10.6328 0.288334 9.5442C0.575868 8.43939 1.13496 7.41582 1.96562 6.47348C2.78029 5.54739 7.29198 1.31602 8.7616 0.633638C9.6881 0.211211 10.6625 0 11.6849 0C12.6753 0 13.6577 0.138099 14.6321 0.4143C15.6065 0.690503 16.525 1.07231 17.3876 1.55973ZM20.3632 32.0552C20.81 31.959 21.602 31.3946 21.9398 31.0747C22.0563 30.9827 22.1631 30.877 22.2602 30.7576C22.3296 30.6424 22.4316 30.5371 22.5329 30.4326C22.6009 30.3623 22.6687 30.2923 22.7261 30.2199C23.4456 29.3813 24.1646 28.538 24.8847 27.6933C27.7243 24.3626 30.5813 21.0114 33.555 17.8546C34.4886 16.8636 35.242 15.8075 35.8153 14.6864C36.1592 13.9878 36.3885 13.3054 36.5032 12.6393C36.6506 11.9732 36.6424 11.3476 36.4786 10.7627C36.3312 10.1941 36.0118 9.66605 35.5205 9.17864C35.0291 8.69122 30.8781 4.86603 29.9773 4.55733C29.4368 4.37861 28.8799 4.31362 28.3066 4.36236C27.7497 4.42735 27.1929 4.57358 26.636 4.80104C26.0955 5.04475 25.5632 5.32907 25.039 5.65401C24.5313 5.9952 24.0727 6.35264 23.6632 6.72632L20.3788 9.72369L16.9084 6.72632C16.509 6.35264 16.0618 5.9952 15.5666 5.65401C15.0554 5.32907 14.5362 5.04475 14.0091 4.80104C13.466 4.57358 12.9229 4.42735 12.3797 4.36236C11.8206 4.31362 11.2775 4.37861 10.7504 4.55733C9.87179 4.86603 5.82336 8.69122 5.34414 9.17864C4.86492 9.66605 4.55342 10.1941 4.40965 10.7627C4.24991 11.3476 4.24193 11.9732 4.38569 12.6393C4.49751 13.3054 4.72115 13.9878 5.05661 14.6864C5.6157 15.8075 6.35051 16.8636 7.26103 17.8546C10.1612 21.0114 12.9476 24.3626 15.7171 27.6933C16.4194 28.538 17.1207 29.3813 17.8224 30.2199C17.8783 30.2923 17.9444 30.3623 18.0108 30.4326C18.1096 30.5371 18.209 30.6424 18.2768 30.7576C18.3715 30.877 18.4756 30.9827 18.5892 31.0747C18.9187 31.3946 19.9275 31.959 20.3632 32.0552Z" fill="#F3F4E9"/>
</svg>
