<svg width="31" height="37" viewBox="0 0 31 37" fill="none" xmlns="http://www.w3.org/2000/svg">
<path fill-rule="evenodd" clip-rule="evenodd" d="M22.3749 1.46611C22.4632 1.50759 22.5405 1.56026 22.6066 1.6241C22.6839 1.65495 22.7612 1.70761 22.8383 1.78209C22.9705 1.90977 23.0137 2.10504 22.968 2.3679C22.9563 2.48815 22.9223 2.63075 22.866 2.79571C22.7987 2.95002 22.7036 3.12137 22.5808 3.30975C22.1782 4.01748 21.6431 4.66299 20.9754 5.24626C20.6195 5.51662 20.2695 5.72685 19.9253 5.87695C19.8588 5.90037 19.8143 5.92326 19.7921 5.94561C19.7588 5.95732 19.72 5.96371 19.6757 5.96478L19.5758 5.99992C19.5315 6.00099 19.4816 6.01855 19.426 6.05262C19.2596 6.11117 19.1209 6.1527 19.01 6.17719L18.6443 6.21875C18.5447 6.21026 18.4394 6.21825 18.3285 6.24275C18.2289 6.23425 18.1181 6.23693 17.9962 6.25078C17.9076 6.25293 17.8245 6.26039 17.7469 6.27317C17.6583 6.27531 17.5808 6.26628 17.5145 6.24607C17.3262 6.23972 17.1824 6.21048 17.083 6.15835L15.5717 6.08037L11.7367 5.60052L10.4083 5.50177C9.79921 5.48377 9.16802 5.46632 8.51467 5.4494C7.8836 5.41012 7.22475 5.38788 6.53811 5.38267L5.97338 5.36361C5.77412 5.34662 5.58037 5.33494 5.39212 5.32859C5.42446 5.4914 5.45117 5.67071 5.47226 5.86651L5.50246 6.422C5.52092 7.09775 5.54502 7.75699 5.57474 8.39975C5.62674 9.02015 5.66772 9.62991 5.69768 10.229L5.82347 11.5347L6.3844 15.3002L6.49259 16.7863C6.49212 16.8736 6.50278 16.9497 6.52458 17.0146C6.56865 17.0571 6.59044 17.122 6.58997 17.2093L6.58854 17.4711C6.59932 17.5254 6.60447 17.5961 6.604 17.6834L6.5688 18.0441C6.56833 18.1314 6.56223 18.2352 6.5505 18.3554C6.56104 18.4533 6.56044 18.5624 6.54871 18.6826C6.53963 18.7264 6.52787 18.7746 6.51343 18.8272C6.52437 18.9077 6.54339 18.9938 6.5705 19.0856C6.58765 19.172 6.60925 19.2522 6.63532 19.3263C6.65247 19.4127 6.65642 19.4899 6.64715 19.558C6.67254 19.7432 6.66722 19.8885 6.6312 19.9938L6.80767 21.4854L6.9697 25.3135L7.0942 26.6293C7.17892 27.2283 7.26793 27.849 7.36122 28.4913C7.4281 29.1151 7.51693 29.7636 7.62772 30.4367L7.70386 30.9925C7.72032 31.1902 7.74124 31.3817 7.76662 31.567C7.92612 31.5104 8.10328 31.4569 8.29811 31.4063L8.85583 31.2919C9.53738 31.1706 10.2013 31.0463 10.8475 30.919C11.4673 30.7733 12.0782 30.64 12.6802 30.5192L13.9819 30.1965L17.7023 29.0721L19.1897 28.7391C19.2782 28.7263 19.3535 28.7042 19.4156 28.6729C19.4512 28.6233 19.5133 28.592 19.6018 28.5792L19.8673 28.5406C19.9205 28.5217 19.9913 28.5059 20.0798 28.493L20.4513 28.4723C20.5398 28.4595 20.6459 28.4496 20.7697 28.4427C20.8672 28.4174 20.9778 28.4014 21.1016 28.3945C21.2165 28.4 21.3623 28.4177 21.5389 28.4476C21.6007 28.472 21.6537 28.481 21.6979 28.4745L21.8039 28.4925C21.8482 28.486 21.8879 28.4858 21.9233 28.4918C21.9497 28.5102 21.9982 28.5253 22.0689 28.5373C22.4397 28.6279 22.8278 28.7771 23.2332 28.985C24.0084 29.4503 24.6637 29.9997 25.1991 30.6333C25.3572 30.7993 25.4845 30.9531 25.5809 31.0947C25.6683 31.2487 25.7294 31.3843 25.764 31.5016C25.8597 31.7544 25.8541 31.9553 25.747 32.1043L25.5865 32.3277L25.3468 32.4959C25.2137 32.5709 25.0674 32.6366 24.9079 32.6931L24.6686 32.7779L9.57918 36.5723L9.12745 36.7047C9.02112 36.7424 8.90604 36.7647 8.78221 36.7715C8.65839 36.7784 8.53885 36.8069 8.4236 36.857C8.17561 36.9264 7.92779 36.968 7.68014 36.9818C7.5474 37.0011 7.40591 37.005 7.25567 36.9935L6.80497 36.959C6.57516 36.9479 6.29269 36.8722 5.95758 36.732C5.54323 36.5366 5.09836 36.2733 4.62296 35.9423C4.12115 35.5928 3.70766 35.2583 3.38249 34.9388C3.13656 34.6744 2.97003 34.4374 2.88291 34.2278C2.7783 33.9873 2.67386 33.719 2.56959 33.423C2.5003 33.1885 2.4576 32.9446 2.44148 32.6913C2.45109 32.5676 2.43856 32.4471 2.40392 32.3299C2.36928 32.2127 2.3523 32.0984 2.35299 31.9872L2.32933 31.5238L0.938225 16.2529L0.939774 16.0025C0.940804 15.8357 0.955036 15.678 0.982478 15.5295C0.999404 15.4715 1.02148 15.417 1.04872 15.3662L0.137502 6.24089L0.0735377 5.78438C0.0519789 5.67583 0.047066 5.56144 0.0587969 5.44118C0.0705265 5.32093 0.0601034 5.20121 0.0275275 5.08203C-0.00433588 4.83196 -0.00853798 4.58667 0.0149232 4.34616C0.0156363 4.21527 0.0329953 4.07852 0.0669981 3.93591L0.169004 3.5081C0.2145 3.28888 0.332202 3.02973 0.52211 2.73067C0.778835 2.36456 1.10765 1.98034 1.50854 1.57802C1.93172 1.15335 2.32675 0.811153 2.69365 0.551437C2.99373 0.358775 3.25466 0.237948 3.47643 0.18896C3.73149 0.128261 4.01421 0.0723478 4.32459 0.0212176C4.5684 -0.00648982 4.81759 -0.00705985 5.07218 0.0195035C5.19384 0.0492802 5.31563 0.057238 5.43753 0.0433849C5.55944 0.0295306 5.67571 0.0321728 5.78636 0.0513097L6.25122 0.105509L21.6614 1.3034L21.9103 1.34647C22.0763 1.37517 22.2312 1.41505 22.3749 1.46611ZM22.007 26.1233C21.9486 26.1473 21.8896 26.1611 21.8299 26.1645C21.7814 26.1879 21.7224 26.2017 21.6528 26.2057C21.5335 26.2126 21.4198 26.1469 21.3118 26.0088C21.2584 25.9499 21.2038 25.8706 21.1479 25.7706C21.102 25.6701 21.0599 25.5488 21.0214 25.4065C20.8516 24.9005 20.7694 24.3585 20.7748 23.7804C20.7974 23.4903 20.8467 23.2295 20.9227 22.9981C20.9401 22.9559 20.9482 22.9244 20.947 22.9039C20.9557 22.8827 20.9694 22.8613 20.9881 22.8396L21.0142 22.7762C21.0329 22.7545 21.046 22.7228 21.0534 22.6811C21.097 22.5754 21.1369 22.4906 21.1729 22.4266L21.3111 22.2329C21.3583 22.1889 21.4 22.1349 21.4361 22.0709C21.4833 22.0269 21.53 21.9726 21.576 21.9081C21.6133 21.8646 21.6457 21.8215 21.6731 21.7787C21.7104 21.7352 21.7483 21.7021 21.7869 21.6792C21.8714 21.5918 21.9479 21.5358 22.0163 21.5112L22.7084 20.8212L24.3777 19.3877L23.8188 19.4446L23.3564 19.4916L22.894 19.5387C22.728 19.5556 22.4777 19.5684 22.143 19.577L20.7914 19.7146L18.4438 19.9534L16.6298 20.138C16.0132 20.2007 15.3941 20.2384 14.7723 20.2509C14.6511 20.2379 14.518 20.226 14.3731 20.2154C14.2308 20.2299 14.0978 20.218 13.9739 20.1799L13.7486 20.0887L13.5273 20.0351C13.2243 19.8883 12.9661 19.7117 12.7527 19.5051C12.368 19.0368 12.2139 18.4817 12.2903 17.8397C12.2955 17.6616 12.3377 17.4924 12.4167 17.3322C12.4747 17.1994 12.5458 17.078 12.6301 16.968C12.7988 16.7479 13.0095 16.5869 13.2625 16.4851C13.5075 16.3079 13.771 16.1923 14.0529 16.1383L14.4007 16.0268L14.7208 15.9942L25.7399 14.873C25.475 14.6668 25.2169 14.4602 24.9656 14.2531L24.2762 13.7359L22.2025 12.3392L21.4331 11.7337C21.3909 11.6949 21.3493 11.6664 21.3083 11.6481C21.2685 11.6504 21.2275 11.6321 21.1853 11.5933L21.0586 11.4768C21.0276 11.458 20.9909 11.4292 20.9487 11.3903L20.7885 11.2139C20.7463 11.1751 20.6985 11.1262 20.6451 11.0674C20.5929 11.0292 20.5401 10.9806 20.4868 10.9218C20.4433 10.8624 20.3937 10.7828 20.3378 10.6828C20.3254 10.6423 20.3087 10.6123 20.2875 10.5929L20.254 10.5329C20.2329 10.5135 20.2168 10.4938 20.2056 10.4738C20.2044 10.4533 20.1926 10.423 20.1703 10.383C20.0673 10.162 19.9873 9.90871 19.9304 9.62313C19.8563 9.04968 19.8735 8.5019 19.982 7.97979C20.0033 7.83413 20.0307 7.70874 20.0644 7.60363C20.1079 7.49794 20.1527 7.41282 20.1988 7.34826C20.2896 7.19857 20.3947 7.12028 20.514 7.11338L20.693 7.10304L20.8756 7.15438C20.9676 7.19033 21.0601 7.23656 21.1533 7.29308L21.293 7.37785L29.3117 13.3519L29.5613 13.5232C29.6235 13.5609 29.6812 13.6091 29.7346 13.6679C29.788 13.7268 29.8507 13.7747 29.9228 13.8118C30.0582 13.9072 30.1792 14.0136 30.286 14.1313C30.3494 14.1895 30.4083 14.2583 30.463 14.3377L30.6268 14.5758C30.7137 14.6946 30.7888 14.8656 30.852 15.089C30.9189 15.374 30.9633 15.7015 30.9854 16.0717C31.0087 16.4623 31.0041 16.8031 30.9716 17.0938C30.9353 17.3229 30.8811 17.5014 30.8089 17.6294C30.728 17.7785 30.6328 17.9387 30.5233 18.1101C30.4313 18.2392 30.3237 18.3589 30.2006 18.4692C30.1334 18.5144 30.0768 18.5692 30.0308 18.6338C29.9848 18.6984 29.9331 18.7529 29.8759 18.7975L29.6483 18.9964L22.395 25.8533L22.2663 25.9536C22.1805 26.0204 22.0941 26.077 22.007 26.1233Z" fill="#F3F4E9"/>
</svg>
